<?xml version="1.0" encoding="UTF-8"?>
<svg
  width="24"
  height="24"
  viewBox="0 0 297.666 297.666"
  fill="#fff93d"
  stroke="#fff93d"
  stroke-width="0.003"
  xmlns="http://www.w3.org/2000/svg"
>
  <path d="M297.666,115.418l-102.842-14.943l-45.991-93.19l-45.991,93.19L0,115.418l74.417,72.538L56.85,290.381l91.983-48.358l91.983,48.358l-17.567-102.425L297.666,115.418zM148.833,225.868c-33.297,0-60.291-26.993-60.291-60.291c0-33.297,26.993-60.29,60.291-60.29s60.291,26.993,60.291,60.29C209.124,198.875,182.13,225.868,148.833,225.868z"/>
  <polygon points="187.902,145.578 168.833,145.578 168.833,126.508 128.833,126.508 128.833,145.578 109.764,145.578 109.764,185.578 128.833,185.578 128.833,204.647 168.833,204.647 168.833,185.578 187.902,185.578"/>
</svg>